# xmcd
#
# Track frame offsets: 
#        150
#        14138
#        31475
#        43020
#        63413
#        79338
#        98970
#        120605
#        136698
#        158668
#        176105
#        188800
#        202648
#        217868
#        232853
#        254313
#        271755
#        289940
#        310450
#
# Disc length: 4462 seconds
#
# Revision: 13
# Processed by: cddbd v1.5.2PL0 Copyright (c) Steve Scherf et al.
# Submitted via: ExactAudioCopyFreeDBPlugin 1.0
#
DISCID=07116c13
DTITLE=Willie Nelson - The Essential Willie Nelson Disc 2
DYEAR=2003
DGENRE=Country
TTITLE0=My Heroes Have Always Been Cowboys
TTITLE1=Willie Nelson and Ray Price - Faded Love
TTITLE2=On The Road Again
TTITLE3=Angel Flying Too Close To The Ground
TTITLE4=Always On My Mind
TTITLE5=Last Thing I Needed First Thing This Morning
TTITLE6=Willie Nelson and Merle Haggard - Pancho And Lefty
TTITLE7=Willie Nelson and Julio Iglesias - To All The Girls I've Loved B
TTITLE7=efore
TTITLE8=City Of New Orleans
TTITLE9=Willie Nelson and Ray Charles - Seven Spanish Angels
TTITLE10=Forgiving You Was Easy
TTITLE11=Willie Nelson, Waylon Jennings, Johnny Cash and Kris Kristoffer
TTITLE11=son - Highwayman
TTITLE12=Living In The Promiseland
TTITLE13=Nothing I Can Do About It Now
TTITLE14=Graceland
TTITLE15=Willie Nelson and Emmylou Harris - Everywhere I Go
TTITLE16=Willie Nelson and U2 - Slow Dancing
TTITLE17=Willie Nelson and Lee Ann Womack - Mendocino County Line
TTITLE18=Willie Nelson, Steven Tyler and Aerosmith - One Time Too Many
EXTD=Year: 2003 YEAR: 2003
EXTT0=
EXTT1=
EXTT2=
EXTT3=
EXTT4=
EXTT5=
EXTT6=
EXTT7=
EXTT8=
EXTT9=
EXTT10=
EXTT11=
EXTT12=
EXTT13=
EXTT14=
EXTT15=
EXTT16=
EXTT17=
EXTT18=
PLAYORDER=
